<svg xmlns="http://www.w3.org/2000/svg" version="1.1" xmlns:xlink="http://www.w3.org/1999/xlink" xmlns:svgjs="http://svgjs.dev/svgjs" width="2000" height="1500" viewBox="0 0 2000 1500"><rect width="2000" height="1500" fill="#000000"></rect><g transform="matrix(0.75,0,0,0.75,250.92131486992912,89.03563238319464)"><svg viewBox="0 0 280 247" data-background-color="#ffffff" preserveAspectRatio="xMidYMid meet" height="1764" width="2000" xmlns="http://www.w3.org/2000/svg" xmlns:xlink="http://www.w3.org/1999/xlink"><g id="tight-bounds" transform="matrix(1,0,0,1,-0.17197877572010611,-0.10000090600837552)"><svg viewBox="0 0 280.3439575514402 247.2" height="247.2" width="280.3439575514402"><g><svg viewBox="0 0 397.4975999999999 350.50303055656207" height="247.2" width="280.3439575514402"><g><rect width="397.4975999999999" height="10.735444894033408" x="0" y="192.62105730125157" fill="#ffffff" opacity="1" stroke-width="0" stroke="transparent" fill-opacity="1" class="rect-o-0" data-fill-palette-color="secondary" rx="1%" id="o-0" data-palette-color="#31c48d"></rect></g><g transform="matrix(1,0,0,1,0.9887999999999693,231.4597610801892)"><svg viewBox="0 0 395.52 119.0432694763729" height="119.0432694763729" width="395.52"><g id="textblocktransform"><svg viewBox="0 0 395.52 119.0432694763729" height="119.0432694763729" width="395.52" id="textblock"><g><svg viewBox="0 0 395.52 119.0432694763729" height="119.0432694763729" width="395.52"><g transform="matrix(1,0,0,1,0,0)"><svg width="395.52" viewBox="4.900000095367432 -34.79999923706055 117.43999481201172 35.349998474121094" height="119.0432694763729" data-palette-color="#31c48d"><path d="M4.9-34.25L7.8-34.25 7.8 0 4.9 0 4.9-34.25ZM24.85-34.8Q27.65-34.8 29.72-33.85 31.8-32.9 33.75-31L33.75-31 32.1-29.25Q30.35-30.85 28.67-31.58 27-32.3 24.9-32.3L24.9-32.3Q22.1-32.3 20.35-30.7 18.6-29.1 18.6-26.5L18.6-26.5Q18.6-23.9 20.15-22.38 21.7-20.85 25.75-19.45L25.75-19.45Q30.35-17.85 32.5-15.65 34.65-13.45 34.65-9.35L34.65-9.35Q34.65-6.55 33.37-4.28 32.1-2 29.75-0.73 27.4 0.55 24.35 0.55L24.35 0.55Q18.55 0.55 14.4-3.75L14.4-3.75 16.05-5.45Q17.95-3.7 19.85-2.83 21.75-1.95 24.3-1.95L24.3-1.95Q27.6-1.95 29.65-3.93 31.7-5.9 31.7-9.25L31.7-9.25Q31.7-11.3 31.02-12.65 30.35-14 28.8-15.03 27.25-16.05 24.45-17.05L24.45-17.05Q19.75-18.7 17.7-20.83 15.65-22.95 15.65-26.4L15.65-26.4Q15.65-28.75 16.82-30.68 18-32.6 20.1-33.7 22.2-34.8 24.85-34.8L24.85-34.8ZM52.55-34.8Q55.09-34.8 56.92-34.02 58.75-33.25 60.55-31.65L60.55-31.65 59-29.8Q57.4-31.1 55.97-31.7 54.55-32.3 52.7-32.3L52.7-32.3Q48.34-32.3 45.7-28.68 43.05-25.05 43.05-17.15L43.05-17.15Q43.05-9.5 45.7-5.75 48.34-2 52.65-2L52.65-2Q54.75-2 56.22-2.73 57.7-3.45 59.3-4.8L59.3-4.8 60.9-2.95Q57.4 0.55 52.55 0.55L52.55 0.55Q48.9 0.55 46.05-1.43 43.2-3.4 41.59-7.38 40-11.35 40-17.15L40-17.15Q40-22.95 41.65-26.93 43.3-30.9 46.15-32.85 49-34.8 52.55-34.8L52.55-34.8ZM77.49-34.8Q83.34-34.8 86.72-30.3 90.09-25.8 90.09-17.1L90.09-17.1Q90.09-8.55 86.72-4 83.34 0.55 77.49 0.55L77.49 0.55Q73.69 0.55 70.84-1.43 67.99-3.4 66.42-7.38 64.84-11.35 64.84-17.05L64.84-17.05Q64.84-22.75 66.42-26.75 67.99-30.75 70.84-32.77 73.69-34.8 77.49-34.8L77.49-34.8ZM77.49-32.3Q72.99-32.3 70.44-28.55 67.89-24.8 67.89-17.05L67.89-17.05Q67.89-9.4 70.47-5.68 73.04-1.95 77.49-1.95L77.49-1.95Q82.09-1.95 84.59-5.65 87.09-9.35 87.09-17.1L87.09-17.1Q87.09-24.85 84.57-28.58 82.04-32.3 77.49-32.3L77.49-32.3ZM97.99-34.25L100.89-34.25 100.89-2.6 113.74-2.6 113.34 0 97.99 0 97.99-34.25ZM119.44-34.25L122.34-34.25 122.34 0 119.44 0 119.44-34.25Z" opacity="1" transform="matrix(1,0,0,1,0,0)" fill="#ffffff" class="wordmark-text-0" data-fill-palette-color="primary" id="text-0"></path></svg></g></svg></g></svg></g></svg></g><g transform="matrix(1,0,0,1,127.09829777502972,0)"><svg viewBox="0 0 143.30100444994048 164.51779841634735" height="164.51779841634735" width="143.30100444994048"><g><svg xmlns="http://www.w3.org/2000/svg" xmlns:xlink="http://www.w3.org/1999/xlink" version="1.1" x="7.999999999999993" y="0" viewBox="12.982999801635742 1 75.68599700927734 97.81300354003906" enable-background="new 0 0 100 100" xml:space="preserve" height="164.51779841634735" width="127.30100444994049" class="icon-icon-0" data-fill-palette-color="accent" id="icon-0"><g fill="#31c48d" data-fill-palette-color="accent"><polygon fill-rule="evenodd" clip-rule="evenodd" points="12.983,10.59 30.001,98.813 24.129,39.764 53.15,37.872 53.096,27.989    64.549,1 53.622,18.977  " fill="#ffffff" data-fill-palette-color="accent"></polygon><polygon fill-rule="evenodd" clip-rule="evenodd" points="59.389,54.548 64.549,1.007 55.809,40.723 36.197,41.768 37.767,62.23    30.001,98.813 42.058,58.914  " fill="#ffffff" data-fill-palette-color="accent"></polygon><polygon fill-rule="evenodd" clip-rule="evenodd" points="62.8,67.182 63.349,56.729 47.37,60.484 47.338,72.281 30.001,98.813    51.681,71.197  " fill="#ffffff" data-fill-palette-color="accent"></polygon><polygon fill-rule="evenodd" clip-rule="evenodd" points="65.711,62.394 80.552,57.663 82.061,45.131 66.162,47.226  " fill="#ffffff" data-fill-palette-color="accent"></polygon><polygon fill-rule="evenodd" clip-rule="evenodd" points="72.07,44.502 83.058,43.085 84.639,32.807 76.56,32.434 64.549,1    72.979,31.967  " fill="#ffffff" data-fill-palette-color="accent"></polygon><polygon fill-rule="evenodd" clip-rule="evenodd" points="87.413,31.294 88.669,21.788 79.125,19.094 64.549,1 79.032,23.437    78.61,30.437  " fill="#ffffff" data-fill-palette-color="accent"></polygon></g></svg></g></svg></g><g><rect width="14.975780658424782" height="10.735444894033408" y="152.78235352231394" x="270.3993022249702" fill="#ffffff" data-fill-palette-color="secondary"></rect><rect width="14.975780658424782" height="10.735444894033408" y="152.78235352231394" x="112.12251711660494" fill="#ffffff" data-fill-palette-color="secondary"></rect></g></svg></g><defs></defs></svg><rect width="280.3439575514402" height="247.2" fill="none" stroke="none" visibility="hidden"></rect></g></svg></g></svg>